<svg id="Layer_1" data-name="Layer 1" xmlns="http://www.w3.org/2000/svg" viewBox="0 0 2141.33 2101.61"><defs><style>.cls-1{fill:#a27cb7;}.cls-2{font-size:306.73px;font-family:ChocolateHeartFree, Chocolate Heart Free;}.cls-16,.cls-2,.cls-4{fill:#010101;}.cls-3{letter-spacing:-0.02em;}.cls-4{font-size:88px;font-family:Lato-Medium, Lato;font-weight:500;}.cls-5{letter-spacing:-0.04em;}.cls-6{letter-spacing:-0.02em;}.cls-7{letter-spacing:-0.01em;}.cls-8{letter-spacing:-0.06em;}.cls-9{letter-spacing:0em;}.cls-10{letter-spacing:-0.02em;}.cls-11{letter-spacing:-0.02em;}.cls-12{letter-spacing:-0.01em;}.cls-13{letter-spacing:-0.02em;}.cls-14{letter-spacing:-0.01em;}.cls-15{letter-spacing:-0.06em;}</style></defs><g id="Mh82It"><path class="cls-1" d="M1701.81,1614.51c-7.5,11.3-16.39,18.18-26,24.16-29.67,18.39-62.56,28.7-95.94,37.59-52.26,13.93-105.6,22.06-159.25,28.29a103.69,103.69,0,0,1-11.83.39c-119.07,0-238.14-.76-357.19.37-52,.49-103-5.63-153.73-15.15-43.78-8.21-87-18.48-128.22-36-12.87-5.47-25.29-11.81-36.65-20-7-5.08-13.52-10.69-18.87-19.21h328c1.08-2.53-.41-3.09-1.35-3.81-75.45-57.9-119.26-135.45-140.61-226.84-7.09-30.36-10.28-61.23-11.11-92.39-.16-5.89,1.42-7.53,7.39-7.53q311.36.24,622.71,0c6.07,0,7.57,1.74,7.31,7.58-.49,11-.14,22-.14,33.22,2.21.25,4.27-2.17,6.72-3.47,30.91-16.49,63.39-26.57,98.68-20.37,65.8,11.57,97.17,77.94,65.5,137.34-12.84,24.08-32.63,41-56.09,54-35.11,19.47-73.51,29.83-112,39.79-31.84,8.24-64,15.52-95,26.65-3.24,1.17-6.24,2.39-8.65,5.14a330.23,330.23,0,0,1-51,47.09c-.82.6-1.83,1.08-1.46,3.13ZM1470,1502.08c13-3.32,24-6,34.84-8.89,34.82-9.19,69.8-17.9,102.69-33,12.49-5.75,24.18-12.77,34.41-22.05a73.29,73.29,0,0,0,18.22-24.53c14.94-33.55-4.91-67.68-41.66-69-40.6-1.44-73.89,15.38-100.27,46a36.33,36.33,0,0,0-7.12,13.11C1500.9,1437.21,1488.59,1469.84,1470,1502.08ZM1190.8,1325.27c0-.49,0-1-.07-1.48h-8.62l-172.27,0c-23.44,0-46.88.2-70.32-.13-6.76-.09-10.13.77-8.42,8.81,2.26,10.53,3,21.39,5.17,31.93,15.2,72.77,45.89,137.53,99.26,190.41,1.8,1.78,3.2,4.31,6.59,4.73-3.92-5.16-7.8-9.8-11.18-14.78-37.37-55-48.75-116.74-47.16-181.87.11-4.47,2.64-5,6-5.53q40.17-6.35,80.32-12.79Zm-80.59,329.39H927.81C989,1669,1049.67,1668.67,1110.21,1654.66Z" transform="translate(-141.17 -209.28)"/></g><g id="pmTdng"><path class="cls-1" d="M1256.61,352c-11.18,49-28.24,90.77-73.57,121.69,56.15-125.35,56.15-125.35,10.15-264.43,32.48,47,81.3,83,90.66,145.62,1.8,12-8.88,40.24,24.29,29.78,4.6-1.45,5.74,5.51,4.45,9-8.52,23.11,9.85,30.76,23.43,40.44,40,28.56,83.75,50.71,127.65,72.64,38.61,19.28,41.93,31.56,22.07,70.2-2.79,5.44-5.38,11.1-8.92,16-15.83,22.15-13.12,39.3,12.23,52,23.93,12,33.4,29.31,17.59,54.6-4.47,7.14-9.12,13.84,4.6,17.89,27.54,8.13,23.31,29.68,13.88,47-14.21,26-6.15,42.57,13.34,61.18,38.28,36.53,33,65.48-14.79,89.9-39.3,20.09-81.59,33.16-124.11,43.31-49,11.69-80.58,40.71-103.39,83.42-30.85,57.78-56.5,117.78-79.68,178.93-6.06,16-12.52,31.79-19.39,49.19-3.2-3.92-5.38-5.49-5.13-6.44,21.77-84.2,48.91-166.36,90.49-243.27,24.11-44.59,58-74.84,109-86,34.78-7.63,69.59-16.83,101.92-32.57,44.14-21.5,48.28-45.52,12.48-78.49-19.62-18.06-29-35.15-12.87-61,10.2-16.31,11.15-33.62-13.44-40.62-14.9-4.24-8.61-14-4.29-21.63,12.32-21.68,6.32-36.21-15.29-47-25.14-12.62-31-30.71-13.33-54.51,4.83-6.5,8.08-14.17,12.18-21.22,13.45-23.14,9.16-39.75-16.13-51.72-29.5-14-58.67-28.88-86.84-45.34C1306.09,451.5,1252.8,424.49,1256.61,352Z" transform="translate(-141.17 -209.28)"/></g><text class="cls-2" transform="translate(0.03 1776.47)"><tspan class="cls-3">W</tspan><tspan x="532.49" y="0">omen’s Cafe</tspan></text><text class="cls-4" transform="translate(555.36 1996.04)"><tspan class="cls-5">F</tspan><tspan x="45.89" y="0">o</tspan><tspan class="cls-6" x="95.96" y="0">r</tspan><tspan class="cls-7" x="126.37" y="0"> </tspan><tspan class="cls-8" x="147.57" y="0">W</tspan><tspan class="cls-9" x="233.99" y="0">ome</tspan><tspan class="cls-10" x="403.39" y="0">n</tspan><tspan class="cls-11" x="451.3" y="0">’</tspan><tspan x="468.24" y="0">s </tspan><tspan class="cls-12" x="528.7" y="0">B</tspan><tspan class="cls-13" x="584.8" y="0">y</tspan><tspan class="cls-14" x="628.27" y="0"> </tspan><tspan class="cls-15" x="649.48" y="0">W</tspan><tspan x="735.89" y="0">ome</tspan><tspan class="cls-10" x="905.29" y="0">n</tspan><tspan class="cls-11" x="953.21" y="0">’</tspan><tspan x="970.15" y="0">s </tspan></text><rect class="cls-16" x="181.85" y="1968.93" width="364.04" height="2.57"/><rect class="cls-16" x="1595.44" y="1968.93" width="364.04" height="2.57"/></svg>