<svg width="26" height="40" viewBox="0 0 26 40" fill="none" xmlns="http://www.w3.org/2000/svg">
<path d="M22.269 34.5741C20.6786 33.8749 18.8564 32.3163 18.5909 30.8534C18.3407 29.4716 18.2381 27.9485 18.9523 26.7658V26.7637C19.1277 26.5218 19.3423 26.3226 19.5936 26.1238C20.4013 25.4865 23.1224 25.9008 23.9938 25.3058C24.6152 24.8821 24.1504 24.1224 24.1334 23.5362C24.127 23.3138 24.4231 22.9644 24.5756 22.7714C24.5979 22.744 24.61 22.7102 24.61 22.6754C24.61 22.6406 24.5979 22.6068 24.5756 22.5795C24.4502 22.4374 24.2899 22.3275 24.1093 22.2597C24.1008 22.251 24.0943 22.2408 24.0902 22.2296C24.086 22.2184 24.0843 22.2065 24.0852 22.1946C24.086 22.1828 24.0894 22.1712 24.0951 22.1607C24.1008 22.1501 24.1087 22.1408 24.1183 22.1333C24.2941 21.9939 24.5763 21.6043 24.7095 21.4131C24.7289 21.385 24.7365 21.3509 24.7307 21.3177C24.7249 21.2845 24.7061 21.2546 24.6782 21.2342C24.5311 21.1244 24.4067 20.9894 24.3111 20.8359C24.4527 20.4481 24.6577 20.0844 24.9185 19.7586C24.9323 19.7351 24.9361 19.7074 24.9291 19.6812C24.922 19.6551 24.9047 19.6326 24.8808 19.6185C24.4865 19.386 22.9281 18.3721 22.85 16.7813C22.8795 16.7712 22.9083 16.7591 22.936 16.7451C22.9897 16.7201 23.0403 16.6895 23.0869 16.6538C23.1739 16.5873 23.2481 16.5066 23.3061 16.4156C23.3599 16.3309 23.4025 16.2402 23.4329 16.1454C23.4472 16.0991 23.4578 16.0524 23.4706 16.0067L23.494 15.868L23.4238 15.9894C23.3967 16.0256 23.3714 16.0658 23.3435 16.1016C23.289 16.1713 23.2256 16.234 23.1548 16.2885C23.09 16.3383 23.0164 16.3766 22.9375 16.4018C22.9129 16.4094 22.8877 16.4151 22.8621 16.4188C22.8621 16.396 22.8651 16.3736 22.8677 16.3507C23.0334 14.9599 22.2936 13.7225 21.7843 13.0555C21.6692 12.8982 21.6037 12.7124 21.5957 12.5203C21.5941 12.4946 21.5891 12.4692 21.5809 12.4446L20.8928 10.4056C20.8069 10.1521 20.7921 9.88146 20.8499 9.62081C20.9078 9.36015 21.0362 9.11874 21.2222 8.9209C22.5361 7.52242 25.0158 4.51398 24.3534 2.33949C24.0248 1.25822 22.9915 0.5387 21.2818 0.200124C18.6101 -0.328923 16.1089 0.192158 13.8481 1.74924C12.5299 2.65706 11.3261 3.90056 10.2698 5.44534C10.1589 5.60602 10.0105 5.73961 9.83623 5.83542C9.66199 5.93124 9.46684 5.98664 9.26634 5.9972L5.83525 6.1826C4.05161 6.27747 2.40717 6.98939 1.20525 8.18653C0.271553 9.11608 -0.122674 10.0648 0.0331305 11.0059C0.286266 12.5323 1.91938 13.6584 3.24391 14.3341C3.88556 14.66 4.57437 14.8919 5.28748 15.0221L5.43046 15.0486C5.70093 15.0987 5.95246 15.2175 6.15881 15.3926C6.36517 15.5678 6.51881 15.7929 6.60371 16.0444C6.63087 16.1436 6.64143 16.1494 6.6686 16.2367L7.05943 17.3954C7.07358 17.4364 7.09655 17.474 7.12683 17.5059C7.15712 17.5378 7.19405 17.5632 7.23522 17.5805C7.08093 17.8995 6.93041 18.6042 7.29521 20.0544C7.46308 20.7222 6.33435 20.8873 6.21061 20.8873C6.08687 20.8873 4.16214 20.8442 3.80564 22.9694C3.259 26.2325 8.24437 26.7611 6.83949 29.7819C5.72999 32.1671 8.63973 34.5618 6.82666 35.4095C6.20495 35.6992 5.70095 36.888 5.68397 36.9195C5.72735 36.8902 7.42913 35.7361 7.32124 36.251C7.1726 36.9514 6.87344 37.8559 7.80299 38.9263C8.73253 39.9967 9.4014 40 9.4014 40C9.4014 40 7.80299 38.7348 8.42507 37.546C9.03848 36.3738 9.35462 35.9403 9.4014 35.3153C9.44818 34.6903 10.2068 36.5353 9.7115 37.0998C9.21617 37.6644 9.08187 37.769 9.08187 37.769C9.08187 37.769 10.1114 37.8871 10.6871 36.9963C11.0081 36.4998 11.3178 35.0046 11.2907 33.4664C11.2865 33.2444 11.2756 33.0221 11.2567 32.8015C11.2949 32.9783 11.391 33.1387 11.5308 33.2593C11.6707 33.38 11.8471 33.4546 12.0342 33.4722C12.2568 33.4934 12.4772 33.5326 12.6929 33.5895C14.6143 34.0986 21.8031 35.6246 23.3616 35.6568C24.7427 35.6854 25.2527 35.4131 25.9269 35.2451C25.95 35.2395 25.9702 35.2258 25.9835 35.2068C25.9968 35.1877 26.0024 35.1647 25.9991 35.1419C25.9957 35.1192 25.9838 35.0985 25.9655 35.0837C25.9473 35.0689 25.924 35.0612 25.9001 35.0619C24.9241 35.0821 23.3167 35.0351 22.269 34.5741ZM5.40895 14.4152C4.75886 14.2961 4.13097 14.0843 3.54609 13.787C2.5675 13.2876 0.892131 12.2502 0.66993 10.9089C0.547701 10.1698 0.883831 9.39853 1.66927 8.61636C2.75764 7.5322 4.24966 6.88763 5.87033 6.80109L9.29992 6.61822C9.35387 6.61532 9.40706 6.60953 9.45987 6.60265L9.50703 6.62691C9.58248 6.66312 9.65793 6.70151 9.73338 6.73555C9.88428 6.80797 10.0352 6.86953 10.1861 6.93471C10.34 6.99409 10.4928 7.05602 10.6482 7.11033C10.8036 7.16465 10.9579 7.22114 11.116 7.26713C11.7409 7.46451 12.3823 7.60989 13.0332 7.70166C13.1139 7.71361 13.1947 7.72737 13.2758 7.73787L13.5198 7.76214C13.6828 7.7759 13.8447 7.79835 14.008 7.80559L14.4984 7.82551L14.6203 7.83058C14.661 7.83058 14.7018 7.83058 14.7425 7.83058L14.987 7.82551L15.2307 7.8208L15.3525 7.81827C15.3933 7.81827 15.4336 7.81175 15.4744 7.80885L15.9595 7.76757C16.1214 7.75852 16.2809 7.72919 16.4409 7.70492L16.9196 7.6325L16.4364 7.66871C16.2757 7.67994 16.1157 7.69623 15.9539 7.69225L15.4714 7.69478C15.4314 7.69478 15.3914 7.69478 15.351 7.69478L15.2307 7.68754L14.9904 7.67342L14.7504 7.65893C14.7104 7.6564 14.6705 7.65495 14.6305 7.65133L14.5113 7.63648L14.0352 7.57891C13.8767 7.55935 13.7202 7.52459 13.5632 7.49816L13.3282 7.45579C13.2505 7.43949 13.1732 7.41958 13.0958 7.40183C12.9411 7.36345 12.7853 7.33267 12.6329 7.28813L12.1765 7.15596L11.7275 7.00387C11.5766 6.95318 11.4329 6.89089 11.2858 6.83549C11.1386 6.78009 10.9972 6.71165 10.8527 6.65045C10.7082 6.58925 10.5697 6.5161 10.4294 6.44875H10.4271C10.4061 6.43774 10.3882 6.42194 10.375 6.40272C10.3619 6.38351 10.3538 6.36147 10.3516 6.33857C10.3494 6.31567 10.3531 6.2926 10.3624 6.2714C10.3717 6.2502 10.3863 6.23151 10.4049 6.217C10.562 6.09525 10.6978 5.95028 10.8074 5.78753C12.1987 3.75282 15.0326 0.62597 19.3223 0.62597C19.9361 0.6273 20.5482 0.688817 21.149 0.809561C22.6059 1.09925 23.4747 1.67175 23.7313 2.51548C24.2556 4.23805 22.3192 6.75474 21.0441 8.17169C20.4696 8.80961 19.6881 9.2433 18.8255 9.40287C18.4193 9.47843 18.0295 9.55411 17.656 9.62992L17.6677 9.61326C17.7179 9.53396 17.77 9.4561 17.8186 9.37644C18.0102 9.05889 18.1641 8.72171 18.2774 8.37121L18.3204 8.24121C18.3343 8.19776 18.3434 8.15286 18.3551 8.10868C18.3762 8.02032 18.4003 7.93269 18.4184 7.84397C18.446 7.66292 18.4822 7.48838 18.4879 7.30805C18.5229 6.95028 18.4879 6.59287 18.4388 6.24452C18.4332 6.59758 18.4147 6.94811 18.3283 7.28596C18.297 7.45651 18.2355 7.62019 18.1846 7.78423C18.1547 7.86534 18.1189 7.94428 18.0868 8.02395C18.0695 8.06342 18.0552 8.10361 18.0359 8.14235L17.9771 8.25751C17.8245 8.56332 17.6366 8.85168 17.4168 9.11717C17.3625 9.18307 17.3037 9.24644 17.2493 9.31089C17.195 9.37535 17.132 9.43474 17.0713 9.49412C17.0105 9.55351 16.9491 9.61145 16.8853 9.66577C16.854 9.69401 16.8219 9.71972 16.7899 9.74579C16.774 9.75919 16.7582 9.77186 16.7423 9.782C16.7265 9.79214 16.7103 9.80699 16.6993 9.81387C16.6883 9.8214 16.6777 9.8295 16.6676 9.83813C14.907 10.227 13.504 10.6322 12.3059 11.0892C12.2588 11.1074 12.2083 11.1156 12.1577 11.1135C12.1071 11.1114 12.0575 11.0989 12.0124 11.0769C11.9482 11.0458 11.8848 11.0117 11.8215 10.9773C11.6955 10.9078 11.5713 10.8325 11.4506 10.7525C11.2067 10.5927 10.9793 10.4108 10.7716 10.2093C10.562 10.0069 10.38 9.77973 10.2302 9.53323C10.0781 9.28116 9.96941 9.00712 9.90842 8.72174C9.9173 9.02101 9.97653 9.31693 10.0838 9.59805C10.1934 9.88402 10.3406 10.1554 10.5218 10.4056C10.7037 10.658 10.9101 10.8933 11.1383 11.1084L11.1417 11.1117C11.1788 11.1472 11.2066 11.1907 11.2226 11.2387C11.2387 11.2866 11.2425 11.3375 11.2338 11.3872C11.2252 11.4368 11.2042 11.4837 11.1727 11.524C11.1413 11.5643 11.1002 11.5967 11.053 11.6186C10.3202 11.9626 9.61419 12.3567 8.9404 12.798C8.9197 12.7936 8.8986 12.7912 8.8774 12.7908C8.81968 12.7908 8.74159 12.7832 8.67217 12.7767C8.60276 12.7702 8.52882 12.76 8.45676 12.7499C8.31303 12.7289 8.16892 12.7017 8.02632 12.6691C7.73946 12.6045 7.45967 12.5138 7.19071 12.3983C6.91888 12.2826 6.66366 12.1339 6.4313 11.9558C6.19443 11.7737 5.98983 11.556 5.82544 11.3112C5.94644 11.5871 6.11307 11.8424 6.31888 12.0673C6.5289 12.2958 6.76837 12.4976 7.03151 12.668C7.29631 12.8403 7.57748 12.9881 7.87127 13.1095H7.87504C7.91315 13.1252 7.94628 13.1503 7.97114 13.1822C7.996 13.2141 8.01171 13.2517 8.01671 13.2912C8.02172 13.3307 8.01583 13.3708 7.99964 13.4075C7.98345 13.4442 7.95753 13.4761 7.92446 13.5002C7.72326 13.6479 7.51942 13.801 7.31294 13.9593C7.04907 14.1634 6.74207 14.3099 6.41328 14.3887C6.08448 14.4674 5.74177 14.4765 5.40895 14.4152ZM8.06367 16.4489C8.0019 16.489 7.93127 16.5147 7.85735 16.5241C7.78343 16.5336 7.70824 16.5264 7.63772 16.5031C7.5672 16.4799 7.50326 16.4412 7.45096 16.3902C7.39866 16.3392 7.35941 16.2772 7.33633 16.2092C7.32297 16.1693 7.31974 16.127 7.32689 16.0858C7.33404 16.0445 7.35138 16.0055 7.37745 15.972C7.44007 15.889 7.50609 15.8079 7.57249 15.7265C7.63888 15.645 7.70905 15.5664 7.77696 15.486L7.99048 15.2514C8.28166 14.9416 8.59314 14.65 8.92304 14.3783C9.08677 14.2393 9.26031 14.1132 9.43347 13.9847C9.52061 13.9213 9.61228 13.8641 9.70169 13.8036L9.83675 13.7135C9.88239 13.6849 9.92955 13.6581 9.97633 13.6305L10.2574 13.4651L10.5486 13.3162L10.695 13.242L10.8459 13.1772L11.1477 13.0472L10.83 13.1413L10.6705 13.1884L10.5147 13.2453L10.2019 13.3608L9.89899 13.4933C9.84806 13.5161 9.79676 13.5375 9.74809 13.5614L9.59795 13.6381C9.49948 13.6892 9.39838 13.737 9.30143 13.791C9.10865 13.8996 8.91399 14.0082 8.72838 14.1324C8.35237 14.3728 7.99274 14.636 7.65171 14.9204L7.39857 15.1377C7.31671 15.2133 7.23296 15.2872 7.15223 15.3647L7.07678 15.4371C7.0375 15.3219 7.03543 15.1981 7.07085 15.0817C7.10626 14.9654 7.1775 14.8621 7.27521 14.7853C10.3796 12.3385 12.6816 11.1225 19.6034 9.89028C19.7167 9.87016 19.8337 9.89021 19.9327 9.94669C20.0317 10.0032 20.106 10.0922 20.1417 10.1973L20.6533 11.7142C20.676 11.7813 20.6829 11.8523 20.6737 11.9223C20.6644 11.9922 20.6392 12.0593 20.5997 12.1188C20.5603 12.1783 20.5076 12.2287 20.4456 12.2663C20.3835 12.304 20.3135 12.328 20.2406 12.3367C15.5117 12.9045 11.425 14.2838 8.06367 16.4489ZM12.2983 32.2196C11.9509 32.4036 11.6419 32.5749 11.3673 32.732L11.262 32.5043C11.2204 32.2232 11.1601 31.945 11.0813 31.6714C10.4181 29.4013 11.6517 28.324 11.2628 27.032C11.0409 26.2922 10.678 24.6526 9.65529 23.819C8.97096 23.2613 9.39763 23.0774 9.75451 23.0165C9.84289 23.0008 9.93422 23.0141 10.0138 23.0543C10.0933 23.0945 10.1564 23.1593 10.1929 23.2381C10.4709 23.8443 11.3522 25.3713 13.3448 25.87C13.4598 25.899 13.5649 25.9564 13.6495 26.0366C13.7341 26.1168 13.7953 26.2169 13.8269 26.327C14.154 27.4651 14.87 30.8537 12.2983 32.2196ZM18.3151 20.6269L18.2095 20.8167L18.1563 20.9112L18.1295 20.9586L18.0982 21.0032C17.7794 21.4891 17.3414 21.8867 16.8615 22.205C16.7416 22.2851 16.6148 22.3549 16.4922 22.4303C16.3647 22.4976 16.2387 22.5671 16.1097 22.6301C15.849 22.7551 15.5845 22.8605 15.3397 23.0093C15.4536 22.9232 15.5723 22.8433 15.6955 22.7699L16.0659 22.5559L16.4254 22.3296C16.5386 22.247 16.6574 22.1695 16.768 22.0834C17.2139 21.7444 17.6036 21.3425 17.8827 20.8793C18.1619 20.4162 18.3132 19.8911 18.3611 19.3585C18.4073 18.8198 18.3751 18.2775 18.2653 17.7474L18.1959 17.3346C18.1691 17.1959 18.1581 17.054 18.1419 16.9135L18.1306 16.8077L18.1253 16.7016L18.1159 16.4887C18.1106 16.4163 18.1159 16.3464 18.1159 16.2754C18.1159 16.2044 18.1182 16.1331 18.1234 16.0618L18.1453 15.8485C18.1491 15.8123 18.1517 15.7761 18.157 15.7424L18.1759 15.6363C18.1891 15.566 18.1993 15.4951 18.2136 15.4252L18.2679 15.2162C18.3461 14.9382 18.4602 14.6705 18.6075 14.4196C18.7569 14.1708 18.9406 13.9426 19.1537 13.741C19.3659 13.5423 19.6032 13.3698 19.8599 13.2275C20.0842 13.1048 20.3203 13.0033 20.565 12.9244C20.6908 12.9104 20.8165 12.8968 20.9423 12.8835C20.8585 12.911 20.7751 12.94 20.694 12.9729C20.4303 13.0751 20.1785 13.2038 19.9429 13.3568C19.4741 13.6537 19.0906 14.059 18.8278 14.5355C18.7036 14.7738 18.6072 15.0246 18.5403 15.2832L18.4954 15.4784C18.4826 15.544 18.4747 15.6109 18.4641 15.6768L18.449 15.7761C18.4452 15.809 18.4437 15.8427 18.4411 15.876L18.426 16.0766C18.426 16.211 18.4188 16.3453 18.426 16.4797L18.4369 16.6817L18.4426 16.7827L18.4547 16.8834C18.4713 17.0178 18.4822 17.1525 18.5097 17.2857L18.5814 17.692C18.6927 18.2503 18.7202 18.821 18.6629 19.3867L18.6527 19.4932L18.6323 19.5989L18.592 19.81C18.5844 19.8462 18.5799 19.8806 18.5697 19.915L18.5388 20.0186L18.4765 20.225C18.4547 20.2937 18.4284 20.361 18.3981 20.4267L18.3151 20.6269Z" fill="#A27CB7"/>
</svg>
